<svg width="216" height="216" xmlns="http://www.w3.org/2000/svg" xmlns:xlink="http://www.w3.org/1999/xlink" xml:space="preserve" overflow="hidden"><g transform="translate(-909 -325)"><path d="M89.0194 22.2549C94.4146 20.2317 106.554 18.2085 125.436 16.1853 141.622 16.8597 152.412 18.2085 157.807 20.2317 152.412 21.5805 141.622 22.2549 125.436 22.2549 106.554 23.6037 94.4146 23.6037 89.0194 22.2549Z" fill="#E8C88A" fill-opacity="0.3" transform="matrix(-6.12332e-17 -1 -1.00001 6.12324e-17 1100.26 530.033)"/><path d="M64.7414 46.5329C70.1366 42.4865 83.6242 39.4518 105.205 37.4286 126.785 38.1029 145.668 39.789 161.853 42.4865 145.668 45.8586 126.785 47.2072 105.205 46.5329 83.6242 48.556 70.1366 48.556 64.7414 46.5329Z" fill="#DEBB7A" fill-opacity="0.52" transform="matrix(-6.12332e-17 -1 -1.00001 6.12324e-17 1100.26 530.033)"/><path d="M48.556 70.8109C56.6487 66.0902 74.1829 62.7182 101.158 60.695 125.436 62.0439 145.668 64.0671 161.853 66.7646 145.668 71.4852 125.436 73.5084 101.158 72.8341 74.1829 74.8572 56.6487 74.1829 48.556 70.8109Z" fill="#D4AD64" fill-opacity="0.72" transform="matrix(-6.12332e-17 -1 -1.00001 6.12324e-17 1100.26 530.033)"/><path d="M28.3244 97.1121C39.1145 90.3682 62.0439 85.6474 97.1121 82.9499 121.39 83.6242 145.668 85.6474 169.946 89.0194 145.668 95.0889 121.39 98.4609 97.1121 99.1352 62.0439 99.8096 39.1145 99.1352 28.3244 97.1121Z" fill="#CE9E5E" transform="matrix(-6.12332e-17 -1 -1.00001 6.12324e-17 1100.26 530.033)"/><path d="M28.3244 123.413C39.1145 118.693 59.3462 115.658 89.0194 114.309 107.902 114.983 126.785 116.669 145.668 119.367 126.785 123.413 107.902 125.436 89.0194 125.436 59.3462 126.785 39.1145 126.111 28.3244 123.413Z" fill="#C08A48" fill-opacity="0.68" transform="matrix(-6.12332e-17 -1 -1.00001 6.12324e-17 1100.26 530.033)"/><path d="M28.3244 151.738C36.417 148.366 49.9049 146.005 68.7877 144.657 84.9731 145.331 99.8096 146.68 113.297 148.703 99.8096 152.075 84.9731 153.761 68.7877 153.761 49.9049 155.11 36.417 154.435 28.3244 151.738Z" fill="#A87A3A" fill-opacity="0.42" transform="matrix(-6.12332e-17 -1 -1.00001 6.12324e-17 1100.26 530.033)"/></g></svg>