<svg width="211" height="207" xmlns="http://www.w3.org/2000/svg" xmlns:xlink="http://www.w3.org/1999/xlink" xml:space="preserve" overflow="hidden"><g transform="translate(-180 -32)"><path d="M89.7678 22.442C95.2083 20.4018 107.449 18.3616 126.491 16.3214 142.812 17.0015 153.693 18.3616 159.134 20.4018 153.693 21.762 142.812 22.442 126.491 22.442 107.449 23.8021 95.2083 23.8021 89.7678 22.442Z" fill="#CE9E5E" fill-opacity="0.2" transform="matrix(-6.1304e-17 -1 -1.00117 6.12324e-17 371.518 236.75)"/><path d="M65.2857 46.9241C70.7262 42.8437 84.3273 39.7835 106.089 37.7433 127.851 38.4233 146.893 40.1236 163.214 42.8437 146.893 46.2441 127.851 47.6041 106.089 46.9241 84.3273 48.9643 70.7262 48.9643 65.2857 46.9241Z" fill="#CE9E5E" fill-opacity="0.38" transform="matrix(-6.1304e-17 -1 -1.00117 6.12324e-17 371.518 236.75)"/><path d="M48.9643 71.4062C57.125 66.6459 74.8066 63.2455 102.009 61.2053 126.491 62.5655 146.893 64.6057 163.214 67.3259 146.893 72.0862 126.491 74.1264 102.009 73.4464 74.8066 75.4866 57.125 74.8066 48.9643 71.4062Z" fill="#CE9E5E" fill-opacity="0.55" transform="matrix(-6.1304e-17 -1 -1.00117 6.12324e-17 371.518 236.75)"/><path d="M28.5625 97.9285C39.4434 91.128 62.5655 86.3674 97.9285 83.6473 122.411 84.3273 146.893 86.3674 171.375 89.7678 146.893 95.8883 122.411 99.2887 97.9285 99.9687 62.5655 100.649 39.4434 99.9687 28.5625 97.9285Z" fill="#343E3A" fill-opacity="0.95" transform="matrix(-6.1304e-17 -1 -1.00117 6.12324e-17 371.518 236.75)"/><path d="M28.5625 124.451C39.4434 119.69 59.8451 116.63 89.7678 115.27 108.809 115.95 127.851 117.65 146.893 120.37 127.851 124.451 108.809 126.491 89.7678 126.491 59.8451 127.851 39.4434 127.171 28.5625 124.451Z" fill="#4A5A4A" fill-opacity="0.58" transform="matrix(-6.1304e-17 -1 -1.00117 6.12324e-17 371.518 236.75)"/><path d="M28.5625 153.013C36.7232 149.613 50.3244 147.233 69.366 145.873 85.6874 146.553 100.649 147.913 114.25 149.953 100.649 153.353 85.6874 155.053 69.366 155.053 50.3244 156.414 36.7232 155.733 28.5625 153.013Z" fill="#5A6A5A" fill-opacity="0.35" transform="matrix(-6.1304e-17 -1 -1.00117 6.12324e-17 371.518 236.75)"/></g></svg>